<?xml version="1.0" encoding="UTF-8"?>
<svg version="1.1" xmlns="http://www.w3.org/2000/svg" width="512" height="512">
<path d="M0 0 C1.01790619 0.00215515 2.03581238 0.0043103 3.08456421 0.00653076 C17.69363523 0.05620146 32.02575853 0.30709809 46.375 3.3125 C47.34985352 3.51117676 48.32470703 3.70985352 49.32910156 3.91455078 C97.7109774 14.03517194 141.69928269 35.9516877 177.375 70.3125 C178.3640332 71.26068604 178.3640332 71.26068604 179.37304688 72.22802734 C188.86130305 81.37247479 197.6012044 90.66984009 205.375 101.3125 C206.23306152 102.46355017 207.09113451 103.61459177 207.94921875 104.765625 C213.98736829 112.95680614 219.34595521 121.47054105 224.375 130.3125 C224.73948242 130.94430176 225.10396484 131.57610352 225.47949219 132.22705078 C247.08534998 169.97532572 256.85198095 212.74189997 256.6875 255.9375 C256.68534485 256.95540619 256.6831897 257.97331238 256.68096924 259.02206421 C256.63129854 273.63113523 256.38040191 287.96325853 253.375 302.3125 C253.07698486 303.77478027 253.07698486 303.77478027 252.77294922 305.26660156 C242.65232806 353.6484774 220.7358123 397.63678269 186.375 433.3125 C185.74287598 433.97185547 185.11075195 434.63121094 184.45947266 435.31054688 C175.31502521 444.79880305 166.01765991 453.5387044 155.375 461.3125 C154.22394983 462.17056152 153.07290823 463.02863451 151.921875 463.88671875 C143.73224019 469.92427396 135.22961724 475.30707302 126.375 480.3125 C125.66778809 480.7146875 124.96057617 481.116875 124.23193359 481.53125 C101.09654164 494.5566741 75.92537591 503.30551461 49.9375 508.625 C49.21860596 508.77235596 48.49971191 508.91971191 47.7590332 509.0715332 C33.08339502 511.86090125 18.55831162 512.66142619 3.64770508 512.62817383 C0.70811513 512.6250221 -2.2304558 512.64854926 -5.16992188 512.67382812 C-18.54306192 512.71848737 -31.43916711 511.51301542 -44.625 509.3125 C-46.33055054 509.03031616 -46.33055054 509.03031616 -48.07055664 508.74243164 C-91.33802759 500.97044532 -132.38793216 480.98345309 -165.625 452.3125 C-166.37007813 451.67828125 -167.11515625 451.0440625 -167.8828125 450.390625 C-181.38779833 438.57948485 -194.05918743 425.82889772 -204.625 411.3125 C-205.48149066 410.16255169 -206.33826433 409.01281411 -207.1953125 407.86328125 C-213.23534209 399.67315742 -218.61867614 391.16870382 -223.625 382.3125 C-224.0271875 381.60528809 -224.429375 380.89807617 -224.84375 380.16943359 C-237.8691741 357.03404164 -246.61801461 331.86287591 -251.9375 305.875 C-252.08485596 305.15610596 -252.23221191 304.43721191 -252.3840332 303.6965332 C-255.35789088 288.05024391 -255.99800362 272.57681954 -255.9375 256.6875 C-255.93534485 255.66959381 -255.9331897 254.65168762 -255.93096924 253.60293579 C-255.88129854 238.99386477 -255.63040191 224.66174147 -252.625 210.3125 C-252.42632324 209.33764648 -252.22764648 208.36279297 -252.02294922 207.35839844 C-241.90232806 158.9765226 -219.9858123 114.98821731 -185.625 79.3125 C-184.99287598 78.65314453 -184.36075195 77.99378906 -183.70947266 77.31445312 C-174.56502521 67.82619695 -165.26765991 59.0862956 -154.625 51.3125 C-153.47394983 50.45443848 -152.32290823 49.59636549 -151.171875 48.73828125 C-142.98224019 42.70072604 -134.47961724 37.31792698 -125.625 32.3125 C-124.91778809 31.9103125 -124.21057617 31.508125 -123.48193359 31.09375 C-100.34654164 18.0683259 -75.17537591 9.31948539 -49.1875 4 C-48.46860596 3.85264404 -47.74971191 3.70528809 -47.0090332 3.5534668 C-31.36274391 0.57960912 -15.88931954 -0.06050362 0 0 Z " fill="#216DB5" transform="translate(255.625,-0.3125)"/>
<path d="M0 0 C1.87769231 0.00276538 1.87769231 0.00276538 3.79331779 0.00558662 C4.48923055 0.00387777 5.1851433 0.00216892 5.90214431 0.00040829 C8.24535632 -0.00289871 10.58828503 0.00813675 12.93147087 0.01904488 C14.60662136 0.01960873 16.28177233 0.01929294 17.95692253 0.01815987 C22.51455297 0.01758434 27.07207886 0.02937086 31.62968493 0.04330778 C36.38895613 0.05578196 41.14822954 0.05698302 45.90751457 0.0593586 C54.92437644 0.06558313 63.94119001 0.08200708 72.95803058 0.10205758 C83.22147831 0.12438634 93.4849283 0.13540239 103.74839425 0.14544845 C124.86527959 0.1663725 145.98209869 0.20306084 167.09895134 0.24609566 C167.09895134 10.80609566 167.09895134 21.36609566 167.09895134 32.24609566 C164.78895134 32.90609566 162.47895134 33.56609566 160.09895134 34.24609566 C158.72050795 35.97346997 158.72050795 35.97346997 158.31379509 38.19140816 C158.09658806 39.00867378 157.87938103 39.82593941 157.65559196 40.66797066 C157.34911736 42.00601753 157.34911736 42.00601753 157.03645134 43.37109566 C156.79733025 44.30179878 156.55820915 45.23250191 156.31184196 46.19140816 C155.54489154 49.20314038 154.82079929 52.22326734 154.09895134 55.24609566 C153.60285193 57.24413847 153.10416335 59.24154024 152.60285759 61.23828316 C151.84650621 64.25435709 151.09286187 67.27087886 150.35090446 70.29052925 C148.50613707 77.77195211 146.44588452 85.17186744 144.28523064 92.56738472 C142.28173036 99.47236424 140.50285714 106.41967997 138.83503532 113.41308784 C137.69091457 118.14511146 136.32862078 122.72493845 134.70442009 127.31567574 C133.94636682 129.73258186 133.71886909 131.73755283 134.09895134 134.24609566 C136.61302081 136.76016513 138.50886584 137.0841689 141.93488884 138.01562691 C143.1343615 138.34449898 144.33383415 138.67337105 145.56965446 139.01220894 C146.87101927 139.36125622 148.17245312 139.71004616 149.47395134 140.05859566 C150.8041307 140.42003969 152.1342083 140.78185846 153.46418571 141.14404488 C161.61053865 143.35325058 169.78126777 145.45155225 177.98127556 147.45239449 C184.78389639 149.12674548 191.50242924 151.05305207 198.22785759 153.01172066 C205.14991344 155.0130304 212.11348015 156.78366914 219.1155529 158.48120308 C223.93581984 159.66212018 228.63391829 161.01045693 233.34895134 162.55859566 C238.1709784 164.10786629 242.05659003 164.64157498 247.09895134 164.24609566 C249.4336063 158.30271149 251.26923251 152.35123757 252.91145134 146.18359566 C253.16789421 145.2333149 253.42433708 144.28303413 253.68855095 143.30395699 C255.81838109 135.3811966 257.86846504 127.43799313 259.92072868 119.49487495 C261.35990427 113.96207566 262.88370982 108.46859693 264.53645134 102.99609566 C266.82068624 95.39274803 268.88645334 87.734739 270.91145134 80.05859566 C271.22590202 78.88716011 271.54035271 77.71572456 271.8643322 76.50879097 C272.15445183 75.39729683 272.44457146 74.28580269 272.74348259 73.14062691 C273.00492058 72.14909615 273.26635857 71.15756538 273.53571892 70.13598824 C274.12659008 67.10428387 274.1981344 64.32705869 274.09895134 61.24609566 C273.17340446 61.03855659 272.24785759 60.83101753 271.29426384 60.61718941 C252.39795184 56.30965855 233.75361095 51.01345785 215.10871696 45.73999214 C207.68373908 43.65363961 200.23084897 41.71908341 192.72834587 39.93115425 C187.36188306 38.63515988 182.38439206 37.00790923 177.09895134 35.24609566 C177.09895134 23.69609566 177.09895134 12.14609566 177.09895134 0.24609566 C188.64895134 0.24609566 200.19895134 0.24609566 212.09895134 0.24609566 C213.08895134 3.71109566 213.08895134 3.71109566 214.09895134 7.24609566 C215.15853904 8.52932113 215.15853904 8.52932113 217.59895134 8.37109566 C220.03936364 8.52932113 220.03936364 8.52932113 221.09895134 7.24609566 C221.46655865 4.91791602 221.80136715 2.58425716 222.09895134 0.24609566 C230.45297164 0.17642309 238.80686946 0.12319723 247.16110897 0.09065914 C251.0408038 0.07503831 254.92029907 0.05386617 258.79987907 0.0197773 C262.54759926 -0.0129449 266.29512812 -0.03078428 270.04298019 -0.03853607 C271.46905273 -0.04405662 272.89511541 -0.05483679 274.32110596 -0.07109451 C283.28417372 -0.16916957 289.16552764 0.1483645 296.78645134 4.93359566 C303.24109529 11.38823961 303.61068279 17.96684414 303.6299572 26.69827461 C303.62058735 28.22601757 303.61080814 29.75375806 303.60066032 31.28149605 C303.60444752 32.90677037 303.60995086 34.53204146 303.617033 36.15730476 C303.63095162 40.55399331 303.61984374 44.95028896 303.60332179 49.34695554 C303.58943338 53.95611491 303.59593559 58.56525236 303.59945488 63.17442513 C303.60215374 70.912328 303.58870841 78.65007547 303.56550407 86.38794136 C303.53888698 95.32554466 303.53715144 104.26288835 303.54889244 113.20051771 C303.55968217 121.81079549 303.55347437 130.42097965 303.53933716 139.03125 C303.53358868 142.69018398 303.53365105 146.3490492 303.53840256 150.00798416 C303.54318495 154.31811826 303.53301857 158.62796907 303.51144791 162.93804932 C303.50589737 164.51702481 303.50539878 166.09602763 303.51040077 167.67500496 C303.51638575 169.83569629 303.50378852 171.99553076 303.48663139 174.1561451 C303.48298655 175.96709207 303.48298655 175.96709207 303.47926807 177.81462383 C302.80529446 183.89566435 300.32135368 188.77531671 296.09895134 193.24609566 C291.53844741 196.43844841 287.79140237 197.3670474 282.29027081 197.38590336 C281.31947293 197.3915946 280.34867506 197.39728584 279.34845906 197.40314955 C277.75261929 197.40491936 277.75261929 197.40491936 276.12454033 197.40672493 C274.99224517 197.41181275 273.85995 197.41690057 272.69334286 197.42214257 C268.88494341 197.43788575 265.07656295 197.44639704 261.26814079 197.45483589 C259.23734699 197.46155604 257.20655718 197.46905742 255.17576656 197.47667622 C246.29490066 197.50997576 237.41402326 197.53151581 228.53311542 197.54987606 C226.22035752 197.55467256 223.90760008 197.55965569 221.59484267 197.56468129 C207.22878391 197.59565107 192.86272108 197.62233225 178.4966383 197.63910007 C175.17014687 197.64304947 171.84365551 197.64705249 168.51716423 197.65112495 C167.27701207 197.6526375 167.27701207 197.6526375 166.01180633 197.65418059 C152.61940623 197.67118668 139.22719093 197.71229675 125.83488104 197.76314794 C112.08133059 197.81494075 98.32787515 197.84404438 84.57422799 197.85129696 C76.85359464 197.8559568 69.13326406 197.8706827 61.41272736 197.91104126 C54.83746358 197.94537168 48.26255724 197.95926851 41.68720899 197.94661712 C38.3337907 197.940797 34.98173876 197.94788952 31.62833214 197.97478676 C27.98768986 198.00242573 24.34893814 197.99297553 20.70828056 197.97435188 C19.65554099 197.99114681 18.60280141 198.00794174 17.51816064 198.02524561 C9.38743095 197.92142118 4.11773017 195.31135826 -1.59015334 189.53745371 C-6.96472421 183.20864147 -5.57219111 173.54752002 -5.50041389 165.75439644 C-5.50227934 163.97322943 -5.50631898 162.19206357 -5.51236153 160.41090584 C-5.52231277 155.59092565 -5.50120828 150.7715361 -5.47388148 145.95164156 C-5.45001638 140.90640262 -5.45299621 135.86117468 -5.45257759 130.81588936 C-5.4479545 122.35079149 -5.42433915 113.88591907 -5.38810921 105.42090034 C-5.34629773 95.62549968 -5.32878942 85.83030163 -5.32548946 76.03481686 C-5.32189514 65.60886864 -5.30303581 55.18299355 -5.27836919 44.75707579 C-5.27213268 41.74921546 -5.26850149 38.74136069 -5.26533508 35.73349571 C-5.25945002 31.01713668 -5.2431805 26.30092344 -5.21873093 21.58462524 C-5.21126959 19.85035834 -5.20721763 18.11607306 -5.20675087 16.38179016 C-5.20549986 14.02245197 -5.19200822 11.66350272 -5.17520332 9.30423164 C-5.17761841 8.61125264 -5.18003349 7.91827364 -5.18252176 7.20429528 C-5.13145171 2.65396145 -5.03628175 0.42722726 0 0 Z " fill="#FDFDFD" transform="translate(106.90104866027832,185.75390434265137)"/>
<path d="M0 0 C1.20720703 -0.03738281 2.41441406 -0.07476562 3.65820312 -0.11328125 C11.03163044 -0.18584642 16.19682258 0.35854028 21.8125 5.375 C28.21066805 11.78326298 27.99477873 17.3276257 28 25.9375 C28.01224609 27.00419922 28.02449219 28.07089844 28.03710938 29.16992188 C28.03904297 30.18763672 28.04097656 31.20535156 28.04296875 32.25390625 C28.04707764 33.1879126 28.05118652 34.12191895 28.05541992 35.08422852 C27.8125 37.375 27.8125 37.375 25.8125 39.375 C23.00265752 39.73523622 21.43008081 39.75832602 19 38.25 C17.8125 36.375 17.8125 36.375 17.8125 30.375 C6.2625 30.375 -5.2875 30.375 -17.1875 30.375 C-17.1875 41.925 -17.1875 53.475 -17.1875 65.375 C-14.2175 66.035 -11.2475 66.695 -8.1875 67.375 C4.34832189 70.33431763 16.79282856 73.58785929 29.15722656 77.19433594 C35.01240779 78.89165069 40.89077737 80.42816591 46.8125 81.875 C54.02822662 83.65028066 61.21420897 85.51390311 68.375 87.5 C69.27412109 87.74169922 70.17324219 87.98339844 71.09960938 88.23242188 C71.93427734 88.46767578 72.76894531 88.70292969 73.62890625 88.9453125 C74.36568604 89.14914551 75.10246582 89.35297852 75.86157227 89.56298828 C78.11690556 90.50169915 79.31875497 91.44651713 80.8125 93.375 C80.71266022 95.90197924 80.37933825 97.92731335 79.8125 100.375 C79.48886475 101.78700684 79.48886475 101.78700684 79.15869141 103.22753906 C78.34363687 106.65962176 77.48966313 110.0800844 76.625 113.5 C76.31256348 114.74394531 76.00012695 115.98789062 75.67822266 117.26953125 C73.58287149 125.53623854 71.3345289 133.74442178 68.94042969 141.92895508 C67.27525989 147.65117473 65.78212867 153.39682338 64.375 159.1875 C62.46271208 167.00870233 60.35086654 174.76218955 58.125 182.5 C57.82730713 183.55034424 57.52961426 184.60068848 57.22290039 185.68286133 C56.93922607 186.65634521 56.65555176 187.6298291 56.36328125 188.6328125 C55.98683472 189.93436279 55.98683472 189.93436279 55.6027832 191.26220703 C54.8125 193.375 54.8125 193.375 52.8125 195.375 C46.99628334 195.78909957 42.28200905 194.9453238 36.75 193.25 C35.16725807 192.78703586 33.58389138 192.32620375 32 191.8671875 C30.74509766 191.50125488 30.74509766 191.50125488 29.46484375 191.12792969 C23.86423484 189.53806611 18.21440995 188.12792607 12.57202148 186.69482422 C6.91573635 185.23972276 1.31419556 183.64687921 -4.28125 181.9765625 C-13.17085049 179.33003832 -22.13235833 177.01693776 -31.125 174.75 C-47.72802773 170.55540172 -47.72802773 170.55540172 -54.06640625 168.7890625 C-54.80576416 168.58490723 -55.54512207 168.38075195 -56.30688477 168.17041016 C-58.53437388 167.22828897 -59.72502804 166.30116143 -61.1875 164.375 C-60.95441829 157.53016698 -58.88358694 151.0067896 -57.0625 144.4375 C-56.7519165 143.29941895 -56.44133301 142.16133789 -56.12133789 140.98876953 C-53.71399274 132.19519683 -51.23023765 123.42329955 -48.74804688 114.65063477 C-46.71899026 107.42297553 -44.85371436 100.16494711 -43.0625 92.875 C-41.29962938 85.71614639 -39.48392913 78.5836754 -37.4375 71.5 C-37.23882324 70.79810547 -37.04014648 70.09621094 -36.83544922 69.37304688 C-35.96156758 66.41667609 -35.4025668 64.5900668 -33.1875 62.375 C-30.0625 62.25 -30.0625 62.25 -27.1875 62.375 C-27.19416183 61.8017247 -27.20082367 61.2284494 -27.20768738 60.63780212 C-27.27424502 54.65157703 -27.31938517 48.6654577 -27.35229492 42.67895508 C-27.36734741 40.44714078 -27.38779398 38.2153559 -27.41381836 35.98364258 C-27.45035688 32.76896896 -27.46726215 29.55468772 -27.48046875 26.33984375 C-27.49595261 25.34790512 -27.51143646 24.35596649 -27.52738953 23.33396912 C-27.52901625 16.5824633 -26.89958493 11.42609554 -22.25 6.1953125 C-21.569375 5.63585937 -20.88875 5.07640625 -20.1875 4.5 C-19.506875 3.92507812 -18.82625 3.35015625 -18.125 2.7578125 C-12.92515501 -0.95336719 -6.10840923 0.07061745 0 0 Z " fill="#236DB4" transform="translate(301.1875,155.625)"/>
<path d="M0 0 C1.77236526 -0.01913956 1.77236526 -0.01913956 3.58053589 -0.03866577 C4.85349518 -0.04089142 6.12645447 -0.04311707 7.43798828 -0.04541016 C8.74986115 -0.05206696 10.06173401 -0.05872375 11.4133606 -0.06558228 C14.18901866 -0.07754461 16.96455236 -0.08126421 19.74023438 -0.08007812 C23.28671216 -0.07987504 26.83238765 -0.1071695 30.37867546 -0.14162254 C33.77345794 -0.1692883 37.1680946 -0.16804202 40.56298828 -0.17041016 C42.46635452 -0.19196671 42.46635452 -0.19196671 44.40817261 -0.21395874 C55.2861738 -0.15761037 55.2861738 -0.15761037 60.13330078 4.29052734 C60.81859863 4.88526855 61.50389648 5.48000977 62.20996094 6.09277344 C67.13511756 11.04148914 71.38692368 16.2859434 75.50830078 21.91552734 C76.150979 22.78346924 76.79365723 23.65141113 77.45581055 24.5456543 C79.35739638 27.12076298 81.24775076 29.70366014 83.13330078 32.29052734 C83.68002441 33.03963379 84.22674805 33.78874023 84.79003906 34.56054688 C86.22256651 36.52907569 87.64918433 38.50160816 89.07080078 40.47802734 C89.48958496 41.05955566 89.90836914 41.64108398 90.33984375 42.24023438 C93.13330078 46.1674426 93.13330078 46.1674426 93.13330078 47.29052734 C55.51330078 47.29052734 17.89330078 47.29052734 -20.86669922 47.29052734 C-20.86669922 15.29052734 -20.86669922 15.29052734 -15.86669922 7.29052734 C-10.66870712 2.41077965 -7.13583007 0.05236304 0 0 Z " fill="#FDFDFD" transform="translate(122.86669921875,128.70947265625)"/>
<path d="M0 0 C1.00098698 1.9712419 1.97329198 3.93893576 2.859375 5.96484375 C5.12767388 10.98892679 7.35250392 13.96490052 12 17 C14.67171371 17.58610371 14.67171371 17.58610371 17 17 C17.66 16.34 18.32 15.68 19 15 C19.14091482 12.52673046 19.14091482 12.52673046 18 10 C17.030625 9.360625 16.06125 8.72125 15.0625 8.0625 C11.48011236 5.64987159 10.93692106 4.12245265 10 0 C16.18735402 0.5987762 21.80790556 1.95843619 27.75 3.75 C34.80071147 5.82344618 41.85885418 7.76338703 49 9.5 C58.5455221 11.83314045 67.9721091 14.51886407 77.40869141 17.25488281 C81.70221259 18.4894623 86.00687482 19.68344126 90.3125 20.875 C91.08996582 21.09027344 91.86743164 21.30554688 92.66845703 21.52734375 C94.4454535 22.0188967 96.22269614 22.50955962 98 23 C93.833856 41.28505718 89.41707492 59.51298485 84.13842773 77.51147461 C82.10246789 84.49494726 80.32251032 91.52890408 78.64794922 98.60742188 C78.45990723 99.38794922 78.27186523 100.16847656 78.078125 100.97265625 C77.83690918 101.99758179 77.83690918 101.99758179 77.59082031 103.04321289 C76.94676063 105.17632792 76.04711956 107.037062 75 109 C73.68 109 72.36 109 71 109 C71.23396484 107.71996094 71.23396484 107.71996094 71.47265625 106.4140625 C73.17302925 95.40572174 72.6944518 86.2408077 66 77 C61.66073995 72.58339129 57.10983591 69.40996213 51 68 C52.25820092 65.48359816 53.14093969 65.38448062 55.6875 64.3125 C61.58801587 61.45741168 66.17822328 56.48070979 68.52734375 50.27734375 C70.09775406 42.71082133 70.57629399 33.48946622 66.39453125 26.70703125 C61.13312919 20.26660351 55.18445608 15.56339022 46.80078125 14.65234375 C37.82581518 14.27393978 30.96800856 15.55938089 24.16015625 21.64453125 C17.88933001 28.43664867 16.43780723 34.67194667 16.63671875 43.76953125 C17.15773524 48.4026564 18.73624573 51.97646594 21 56 C21.67129225 57.33101049 22.3392923 58.66370379 23 60 C22.16597656 59.96519531 21.33195312 59.93039062 20.47265625 59.89453125 C8.61182595 59.60921918 1.88953002 61.2215149 -6.828125 69.51953125 C-10.86004564 74.1243327 -12.61459546 79.12852364 -14 85 C-19.75 85.125 -19.75 85.125 -22 84 C-21.07597146 77.61454902 -19.63019015 71.48031567 -17.75 65.3125 C-15.62706272 58.34155461 -13.79439782 51.32789629 -12.0625 44.25 C-9.50350482 33.82016858 -6.63894735 23.50432892 -3.63427734 13.1953125 C-2.36784372 8.81202876 -1.17685763 4.40805447 0 0 Z " fill="#F9FBFC" transform="translate(273,231)"/>
<path d="M0 0 C1.00675781 0.25265625 2.01351562 0.5053125 3.05078125 0.765625 C21.4022717 5.51374672 21.4022717 5.51374672 25.9375 11.375 C26.75927734 12.39980469 26.75927734 12.39980469 27.59765625 13.4453125 C30.08971874 16.96620813 30.009576 19.39266618 30 23.6875 C30.00386719 25.41806641 30.00386719 25.41806641 30.0078125 27.18359375 C29.875 30.25 29.875 30.25 28.875 33.25 C22.21920393 32.58521181 15.91270546 31.15401233 9.4375 29.5 C8.37926025 29.23268066 7.32102051 28.96536133 6.23071289 28.68994141 C-1.30059143 26.76732224 -8.75917763 24.6602507 -16.19921875 22.4140625 C-21.48065339 20.82711525 -26.81339812 19.4406112 -32.1484375 18.046875 C-34.15794987 17.50889531 -36.15147374 16.90784209 -38.125 16.25 C-37.22074169 9.3745187 -35.34682922 4.90423909 -30.125 0.25 C-21.65450518 -6.00203189 -9.34657002 -2.50849879 0 0 Z " fill="#FAFBFC" transform="translate(306.125,302.75)"/>
<path d="M0 0 C5.23154803 2.53515084 8.13591043 6.27930577 10.4375 11.5625 C11.65301015 17.05255417 10.0865118 21.72120257 7.4375 26.5625 C3.91549001 30.62635768 1.04124807 33.25063045 -4.3671875 33.8984375 C-10.60124265 33.97775118 -14.76568086 33.99955771 -19.5625 29.5625 C-24.31900217 24.29178138 -24.9167151 20.20250602 -24.84375 13.2890625 C-24.32083098 8.2196531 -21.71423296 5.59905966 -18.0625 2.3125 C-11.99360962 -1.93572327 -7.12431074 -2.62663982 0 0 Z " fill="#FAFBFC" transform="translate(323.5625,255.4375)"/>
<path d="M0 0 C1.20720703 -0.03738281 2.41441406 -0.07476562 3.65820312 -0.11328125 C11.03163044 -0.18584642 16.19682258 0.35854028 21.8125 5.375 C25.68358531 9.25219305 27.75656828 12.32789909 27.91015625 17.94921875 C27.90353244 19.32034658 27.89164198 20.69145717 27.875 22.0625 C27.87048828 22.76439453 27.86597656 23.46628906 27.86132812 24.18945312 C27.84956927 25.91800538 27.83163454 27.64651365 27.8125 29.375 C24.8425 29.375 21.8725 29.375 18.8125 29.375 C18.76351562 28.55515625 18.71453125 27.7353125 18.6640625 26.890625 C18.58929688 25.81296875 18.51453125 24.7353125 18.4375 23.625 C18.33308594 22.02398437 18.33308594 22.02398437 18.2265625 20.390625 C17.83230446 17.51923622 17.39976192 15.77208943 15.8125 13.375 C11.05164081 10.20109387 5.97304275 11.00627935 0.375 11 C-1.34299805 10.96326172 -1.34299805 10.96326172 -3.09570312 10.92578125 C-4.19720703 10.92191406 -5.29871094 10.91804687 -6.43359375 10.9140625 C-7.94457642 10.90173584 -7.94457642 10.90173584 -9.48608398 10.88916016 C-12.89244227 11.5017813 -14.03598902 12.72655939 -16.1875 15.375 C-17.60384833 18.20769666 -17.5338005 20.84966438 -17.75 24 C-17.83378906 25.18851563 -17.91757812 26.37703125 -18.00390625 27.6015625 C-18.06449219 28.51679688 -18.12507813 29.43203125 -18.1875 30.375 C-21.1575 30.375 -24.1275 30.375 -27.1875 30.375 C-27.76548165 13.74197248 -27.76548165 13.74197248 -24.1875 8.375 C-16.46480691 0.42706169 -10.80680327 0.12493414 0 0 Z " fill="#F8FAFC" transform="translate(301.1875,155.625)"/>
<path d="M0 0 C1.07585609 -0.0076664 1.07585609 -0.0076664 2.17344666 -0.01548767 C4.55069258 -0.02941809 6.92764969 -0.02842432 9.30493164 -0.02612305 C10.95398568 -0.03000819 12.60303872 -0.03434248 14.25209045 -0.03910828 C17.71138754 -0.04657797 21.17058259 -0.04627389 24.62988281 -0.04101562 C29.06662151 -0.03522102 33.50294274 -0.05214791 37.93961239 -0.0753603 C41.34622141 -0.09008076 44.75272951 -0.09097164 48.1593647 -0.08785057 C49.79526153 -0.08836467 51.43116388 -0.093619 53.06702995 -0.10366249 C55.3535575 -0.11597682 57.63926714 -0.10926601 59.92578125 -0.09765625 C61.87864296 -0.09860039 61.87864296 -0.09860039 63.87095642 -0.0995636 C67.02758789 0.2746582 67.02758789 0.2746582 68.98316956 1.63777161 C70.02758789 3.2746582 70.02758789 3.2746582 69.84008789 5.8371582 C69.02758789 8.2746582 69.02758789 8.2746582 67.02758789 10.2746582 C64.03590393 10.52862549 64.03590393 10.52862549 60.14697266 10.53344727 C59.43948883 10.5369519 58.732005 10.54045654 58.00308228 10.54406738 C55.65828717 10.55288855 53.31379246 10.5470337 50.96899414 10.5402832 C49.34236086 10.5416299 47.71572797 10.54357046 46.08909607 10.54608154 C42.67687149 10.54903345 39.2647515 10.54473364 35.85253906 10.53540039 C31.47641183 10.52401482 27.10053015 10.53055916 22.72441196 10.54254532 C19.36413216 10.54976988 16.00391063 10.5474731 12.64362907 10.54228973 C11.03006906 10.54095442 9.41650377 10.54259684 7.80294991 10.54724884 C5.54768985 10.55232289 3.29282803 10.54459132 1.03759766 10.53344727 C-0.24654526 10.53185608 -1.53068817 10.53026489 -2.85374451 10.52862549 C-5.97241211 10.2746582 -5.97241211 10.2746582 -8.97241211 8.2746582 C-9.28491211 5.2746582 -9.28491211 5.2746582 -8.97241211 2.2746582 C-6.08960639 -0.60814751 -4.0368608 0.014295 0 0 Z " fill="#2681C2" transform="translate(145.972412109375,335.725341796875)"/>
<path d="M0 0 C1.06144478 -0.0076664 1.06144478 -0.0076664 2.14433289 -0.01548767 C4.48367771 -0.02938925 6.82272816 -0.02842672 9.16210938 -0.02612305 C10.78731394 -0.03000928 12.4125175 -0.03434379 14.03771973 -0.03910828 C17.44396254 -0.0465714 20.85010169 -0.04627827 24.25634766 -0.04101562 C28.62467873 -0.03521655 32.99258643 -0.05216185 37.36084747 -0.0753603 C40.71684252 -0.09007951 44.07273511 -0.09097191 47.42875671 -0.08785057 C49.03953389 -0.08836456 50.65031669 -0.0936168 52.26106262 -0.10366249 C54.51156288 -0.11597679 56.76123216 -0.10926652 59.01171875 -0.09765625 C60.93340881 -0.09860039 60.93340881 -0.09860039 62.8939209 -0.0995636 C66.00585938 0.2746582 66.00585938 0.2746582 67.95471191 1.60261536 C69.00585938 3.2746582 69.00585938 3.2746582 68.81835938 6.3996582 C68.55023438 7.3484082 68.28210938 8.2971582 68.00585938 9.2746582 C65.03055198 10.7623119 62.3371148 10.4102193 59.01757812 10.41992188 C58.29873444 10.42328049 57.57989075 10.4266391 56.83926392 10.43009949 C54.45727828 10.43961766 52.07536285 10.4415529 49.69335938 10.44262695 C48.04191051 10.44583848 46.39046193 10.44920247 44.73901367 10.45271301 C41.27554667 10.45870613 37.81210463 10.46055268 34.34863281 10.45996094 C29.902924 10.4598592 25.4573745 10.47352245 21.01170349 10.49073315 C17.60086323 10.50183083 14.19006179 10.50388085 10.77920532 10.50335121 C9.1396937 10.50453428 7.50018118 10.50897424 5.86068726 10.51668358 C3.57172349 10.52644046 1.28310958 10.52362291 -1.00585938 10.51757812 C-2.962052 10.51971565 -2.962052 10.51971565 -4.95776367 10.52189636 C-7.99414062 10.2746582 -7.99414062 10.2746582 -9.99414062 8.2746582 C-10.30664062 5.2746582 -10.30664062 5.2746582 -9.99414062 2.2746582 C-6.29225087 -0.1932683 -4.4203119 0.01589703 0 0 Z " fill="#2781C2" transform="translate(146.994140625,297.725341796875)"/>
<path d="M0 0 C1.07585609 -0.0076664 1.07585609 -0.0076664 2.17344666 -0.01548767 C4.55069258 -0.02941809 6.92764969 -0.02842432 9.30493164 -0.02612305 C10.95398568 -0.03000819 12.60303872 -0.03434248 14.25209045 -0.03910828 C17.71138754 -0.04657797 21.17058259 -0.04627389 24.62988281 -0.04101562 C29.06662151 -0.03522102 33.50294274 -0.05214791 37.93961239 -0.0753603 C41.34622141 -0.09008076 44.75272951 -0.09097164 48.1593647 -0.08785057 C49.79526153 -0.08836467 51.43116388 -0.093619 53.06702995 -0.10366249 C55.3535575 -0.11597682 57.63926714 -0.10926601 59.92578125 -0.09765625 C61.87864296 -0.09860039 61.87864296 -0.09860039 63.87095642 -0.0995636 C67.02758789 0.2746582 67.02758789 0.2746582 68.98316956 1.63777161 C70.02758789 3.2746582 70.02758789 3.2746582 69.84008789 5.8371582 C69.02758789 8.2746582 69.02758789 8.2746582 67.02758789 10.2746582 C64.03590393 10.52862549 64.03590393 10.52862549 60.14697266 10.53344727 C59.43948883 10.5369519 58.732005 10.54045654 58.00308228 10.54406738 C55.65828717 10.55288855 53.31379246 10.5470337 50.96899414 10.5402832 C49.34236086 10.5416299 47.71572797 10.54357046 46.08909607 10.54608154 C42.67687149 10.54903345 39.2647515 10.54473364 35.85253906 10.53540039 C31.47641183 10.52401482 27.10053015 10.53055916 22.72441196 10.54254532 C19.36413216 10.54976988 16.00391063 10.5474731 12.64362907 10.54228973 C11.03006906 10.54095442 9.41650377 10.54259684 7.80294991 10.54724884 C5.54768985 10.55232289 3.29282803 10.54459132 1.03759766 10.53344727 C-0.24654526 10.53185608 -1.53068817 10.53026489 -2.85374451 10.52862549 C-5.97241211 10.2746582 -5.97241211 10.2746582 -8.97241211 8.2746582 C-9.28491211 5.2746582 -9.28491211 5.2746582 -8.97241211 2.2746582 C-6.08960639 -0.60814751 -4.0368608 0.014295 0 0 Z " fill="#2681C2" transform="translate(145.972412109375,260.725341796875)"/>
<path d="M0 0 C1.06144478 -0.0076664 1.06144478 -0.0076664 2.14433289 -0.01548767 C4.48367771 -0.02938925 6.82272816 -0.02842672 9.16210938 -0.02612305 C10.78731394 -0.03000928 12.4125175 -0.03434379 14.03771973 -0.03910828 C17.44396254 -0.0465714 20.85010169 -0.04627827 24.25634766 -0.04101562 C28.62467873 -0.03521655 32.99258643 -0.05216185 37.36084747 -0.0753603 C40.71684252 -0.09007951 44.07273511 -0.09097191 47.42875671 -0.08785057 C49.03953389 -0.08836456 50.65031669 -0.0936168 52.26106262 -0.10366249 C54.51156288 -0.11597679 56.76123216 -0.10926652 59.01171875 -0.09765625 C60.93340881 -0.09860039 60.93340881 -0.09860039 62.8939209 -0.0995636 C66.00585938 0.2746582 66.00585938 0.2746582 67.95471191 1.60261536 C69.00585938 3.2746582 69.00585938 3.2746582 68.81835938 6.3996582 C68.55023438 7.3484082 68.28210938 8.2971582 68.00585938 9.2746582 C65.03055198 10.7623119 62.3371148 10.4102193 59.01757812 10.41992188 C58.29873444 10.42328049 57.57989075 10.4266391 56.83926392 10.43009949 C54.45727828 10.43961766 52.07536285 10.4415529 49.69335938 10.44262695 C48.04191051 10.44583848 46.39046193 10.44920247 44.73901367 10.45271301 C41.27554667 10.45870613 37.81210463 10.46055268 34.34863281 10.45996094 C29.902924 10.4598592 25.4573745 10.47352245 21.01170349 10.49073315 C17.60086323 10.50183083 14.19006179 10.50388085 10.77920532 10.50335121 C9.1396937 10.50453428 7.50018118 10.50897424 5.86068726 10.51668358 C3.57172349 10.52644046 1.28310958 10.52362291 -1.00585938 10.51757812 C-2.962052 10.51971565 -2.962052 10.51971565 -4.95776367 10.52189636 C-7.99414062 10.2746582 -7.99414062 10.2746582 -9.99414062 8.2746582 C-10.30664062 5.2746582 -10.30664062 5.2746582 -9.99414062 2.2746582 C-6.29225087 -0.1932683 -4.4203119 0.01589703 0 0 Z " fill="#2781C2" transform="translate(146.994140625,222.725341796875)"/>
<path d="M0 0 C0.33 0 0.66 0 1 0 C1 3.96 1 7.92 1 12 C12.55 12 24.1 12 36 12 C36 8.04 36 4.08 36 0 C36.33 0 36.66 0 37 0 C37 3.96 37 7.92 37 12 C39.97 12 42.94 12 46 12 C46.1953125 18.0546875 46.1953125 18.0546875 46 20 C44 22 44 22 41.5625 22.3125 C39 22 39 22 37.1875 20.875 C36 19 36 19 36 13 C24.45 13 12.9 13 1 13 C1 24.55 1 36.1 1 48 C0.67 48 0.34 48 0 48 C0 32.16 0 16.32 0 0 Z " fill="#89B2D8" transform="translate(283,173)"/>
<path d="M0 0 C2.97 0 5.94 0 9 0 C9.125 3.375 9.125 3.375 9 7 C7 9 7 9 4.5 9.25 C2 9 2 9 0 7 C-0.125 3.375 -0.125 3.375 0 0 Z " fill="#2066B0" transform="translate(320,186)"/>
</svg>
